<?xml version="1.0" encoding="utf-8"?>
<!-- Generator: Adobe Illustrator 18.1.1, SVG Export Plug-In . SVG Version: 6.00 Build 0)  -->
<svg version="1.1" id="Layer_1" xmlns="http://www.w3.org/2000/svg" xmlns:xlink="http://www.w3.org/1999/xlink" x="0px" y="0px"
	 viewBox="0 0 612 792" enable-background="new 0 0 612 792" xml:space="preserve">
<g>
	<path fill-rule="evenodd" clip-rule="evenodd" d="M319.2,400.4C319.2,400.4,319.2,400.4,319.2,400.4
		C319.2,400.4,319.2,400.4,319.2,400.4C319.2,400.4,319.2,400.4,319.2,400.4L319.2,400.4C319.2,400.4,319.2,400.4,319.2,400.4
		C319.2,400.4,319.2,400.4,319.2,400.4L319.2,400.4z"/>
	<path fill-rule="evenodd" clip-rule="evenodd" d="M203.6,414.4c0.3-0.2,0.7-0.4,1.1-0.5c2-0.6,3.8-1.8,5.7-2.6
		c0.9-0.4,1.9-0.8,2.8-1.2c1.4-0.6,2.7-1.2,4.1-1.7c0.9-0.3,1.6-0.8,2.5-1.1c0.7-0.3,1.4-0.4,2-0.7c3-1.6,6.1-3,9.2-4.4
		c0.3-0.2,0.7-0.4,1-0.4c0.6,0.1,1.2,0.1,1.8,0.1c0.9,0,1.8,0.1,2.7,0.1c1.2,0.1,2.4,0.2,3.7,0.4c1.4,0.2,2.7,0.4,4.1,0.4
		c1.8,0,3.5-0.2,5.2-0.4c1.1-0.2,2.2-0.3,3.4-0.5c1.7-0.2,3.4-0.5,5-0.8c1.6-0.2,3.2-0.2,4.7-0.3c1.7-0.1,3.4-0.1,5-0.1
		c1.5,0,3,0.1,4.4,0.2c1.4,0.1,2.9,0.2,4.3,0.4c1.5,0.1,3.1,0.3,4.6,0.5c0.2,0,0.3,0.1,0.4-0.2c0.1-0.2,0.2-0.3,0.4-0.3
		c0.2,0,0.3,0.2,0.3,0.4c0,0.2,0.1,0.2,0.2,0.2c1.1,0.1,2.1,0.3,3.2,0.5c2.3,0.3,4.5,0.7,6.7,1.1c1.8,0.3,3.5,0.8,5.3,1.3
		c2,0.6,4,1.1,5.9,1.8c1.4,0.5,3,0.9,4.4,1.4c2.3,0.8,4.5,1.5,6.8,2.3c1.4,0.5,2.8,0.9,4.2,1.3c1.4,0.4,2.7,1,4.1,1.4
		c2.5,0.8,5,1.8,7.6,2.4c2.3,0.5,4.7,0.8,7.1,1c0.8,0.1,1.5,0,2.3,0.2c0.7,0.1,1.3,0.1,2,0c1.4-0.2,2.6-0.7,3.8-1.3
		c0.5-0.3,1-0.8,1.5-0.7c0.6,0.1,1.1,0.5,1.6,0.7c1.2,0.6,2.4,1,3.7,1.4c1.3,0.4,2.6,0.6,3.9,0.8c2,0.2,4,0.4,6,0.4c1.3,0,2.7,0,4,0
		c0.9,0,1.7,0.1,2.6,0.1c1.4,0,2.8,0.1,4.2,0c0.9-0.1,1.8-0.2,2.7-0.2c0.8,0,1.7-0.3,2.5-0.4c0.7-0.1,1.5-0.1,2.1-0.3
		c1.2-0.3,2.4-0.4,3.6-0.8c1.8-0.5,3.6-0.8,5.4-1.3c0.9-0.2,1.8-0.5,2.6-0.8c1.7-0.7,3.4-1.4,5-2.4c1.6-1,3.2-2,4.6-3.1
		c0.9-0.7,1.9-1.3,2.8-2.1c0.8-0.9,1.6-1.8,2.5-2.6c0.7-0.7,1.4-1.4,1.9-2.2c0.6-0.8,1.1-1.7,1.1-2.8c0-0.5-0.3-0.7-0.8-0.7
		c-0.8,0-1.4,0.5-2.1,0.8c-0.1,0.1-0.4,0.2-0.2,0.5c0.2,0.2,0.4,0.1,0.6,0c0.4-0.2,0.8-0.5,1.2-0.6c0.3-0.1,0.5,0,0.4,0.4
		c-0.1,0.3-0.2,0.7-0.4,1c-0.8,1.3-1.8,2.4-3,3.3c-2.1,1.6-4.5,2.7-7,3.4c-3.4,0.9-6.9,1.4-10.5,1.4c-1.6,0-3.3,0.1-4.9,0
		c-1.9-0.1-3.8-0.4-5.7-0.7c-1.8-0.3-3.5-0.7-5.3-1.3c-1.5-0.5-2.9-0.9-4.3-1.5c-1.7-0.8-3.4-1.6-5.2-2.4c-1.8-0.8-3.5-1.7-5.2-2.5
		c-1.5-0.7-3-1.7-4.4-2.6c-1.5-0.9-2.9-1.8-4.4-2.8c-1.5-0.9-3-1.8-4.5-2.7c-1.6-1-3.3-1.9-5-2.7c-3-1.6-6.1-2.8-9.2-4.1
		c-2.3-0.9-4.6-1.7-6.9-2.5c-2.1-0.7-4.2-1.5-6.3-2.2c-2.4-0.8-4.9-1.4-7.4-2.1c-2.1-0.6-4.2-1.1-6.4-1.3c-2.1-0.2-4.2-0.5-6.2-0.7
		c-1.7-0.2-3.5-0.2-5.2-0.2c-1.1-0.1-2.2,0-3.4,0c-1.6,0.1-3.1,0.1-4.7,0.3c-1.9,0.2-3.7,0.4-5.6,0.6c-1.5,0.2-3,0.4-4.4,0.7
		c-2.3,0.5-4.6,1.2-6.9,1.6c-2.6,0.4-5.1,1.2-7.6,2.1c-1.7,0.6-3.5,1.2-5.2,1.8c-1.8,0.6-3.6,1.3-5.4,2c-1.5,0.6-3,1.2-4.4,1.8
		c-1.5,0.7-3,1.4-4.4,2.1c-1.2,0.6-2.4,1.4-3.5,2.2c-0.7,0.5-1.4,0.9-2,1.5c-2.2,2.2-4.4,4.4-6.8,6.3c-1.6,1.2-3.2,2.3-5,3.2
		c-1.6,0.8-3.2,1.5-4.8,2.3c-1.3,0.6-2.6,1.2-4,1.7c-1.7,0.7-3.4,1.1-5.2,1.6c-0.8,0.2-1.6,0.5-2.2,1.1c-1.2,1.1-2.3,2.3-3.4,3.5
		c-0.6,0.7-1.3,1.2-2.3,1.4C201.9,414.6,202.7,414.9,203.6,414.4z M247.9,401.9c-1,0.2-2-0.2-2.9-0.5c-1.9-0.6-3.8-1.3-5.7-1.8
		c-0.2-0.1-0.4-0.2-0.6-0.3c0.8-0.4,1.7-0.8,2.6-1c0.3-0.1,0.6-0.1,0.9,0c2,0.5,4,1.4,6,2.1c0.7,0.3,1.4,0.7,2.1,1.2
		C249.4,401.6,248.7,401.7,247.9,401.9z M259.8,400.2c-0.1,0.1-0.2,0.1-0.4,0.1c-1.1,0.1-2.1,0.2-3.2,0.3c-0.2,0-0.4,0-0.6-0.2
		c-1.1-0.8-2.2-1.6-3.3-2.4c-1-0.8-2.3-1.3-3.4-2c-0.1-0.1-0.2-0.2-0.4-0.3c1-0.3,1.8-0.6,2.7-0.8c0.4-0.1,0.6,0.1,0.9,0.2
		c2,0.7,3.7,1.8,5.4,3c0.7,0.5,1.4,1.1,1.9,1.7C259.7,400,259.9,400.1,259.8,400.2z M263.3,400c-0.1,0.2-0.5,0.1-0.7,0.1
		c-0.5,0-1,0-1.4,0.1c-0.4,0.1-0.7-0.1-0.9-0.4c-0.6-1-1.6-1.7-2.5-2.4c-1.5-1.1-3.1-2.1-4.8-3c0.8-0.2,1.5-0.5,2.3-0.6
		c0.4-0.1,0.8,0.2,1.2,0.3c1.7,0.6,3.2,1.6,4.5,2.9c0.6,0.7,1.3,1.3,1.9,2c0,0,0.1,0.1,0.1,0.1C263.1,399.5,263.4,399.8,263.3,400z
		 M272,400.2c-0.1,0.1-0.3,0.1-0.4,0.1c0,0,0,0,0,0c-1.1-0.1-2.1-0.1-3.2-0.2c-0.5,0-0.7-0.5-0.9-0.9c-1.2-1.9-2.5-3.8-3.9-5.6
		c-0.4-0.5-0.9-1-1.5-1.3c-0.1-0.1-0.2-0.1-0.2-0.2c0-0.1,0.1-0.1,0.2-0.2c0.6-0.2,1.3-0.3,1.9-0.6c0.1-0.1,0.4,0,0.4,0.1
		c0.4,0.7,1.3,0.8,1.8,1.3c1.1,1,2.2,2.1,3.1,3.3c0.7,0.9,1.4,1.8,2,2.8c0.2,0.3,0.3,0.6,0.5,0.9C271.9,400,272.1,400.1,272,400.2z
		 M277.4,400.5c-0.2,0.2-0.5,0.1-0.8,0.1c-1-0.1-2-0.2-3-0.2c-0.6,0-1-0.3-1.2-0.8c-1.2-2.3-2.7-4.4-4.5-6.2
		c-0.8-0.8-1.7-1.5-2.7-2.2c0.7-0.1,1.4-0.2,2.1-0.4c0.5-0.1,1,0,1.5,0.3c0.8,0.5,1.6,1,2.4,1.6c0.6,0.4,1.2,1,1.8,1.6
		c1.1,1.2,2,2.4,3,3.7c0.4,0.5,0.7,1.1,1.1,1.7c0,0,0,0.1,0.1,0.1C277.3,400,277.6,400.2,277.4,400.5z M281.9,401.1
		c-1.3-0.1-2.5-0.3-3.8-0.4c-0.1,0-0.2,0-0.2-0.2c0-0.5-0.2-1-0.5-1.4c-1-1.5-2-3.1-3.1-4.5c-1.2-1.6-2.7-2.8-4.3-3.8
		c-0.1-0.1-0.2-0.2-0.4-0.3c0,0,0-0.1-0.1-0.1c1.2-0.3,2.5-0.5,3.8-0.6c0.4,0,0.8,0.3,1.1,0.6c0.9,0.7,1.6,1.6,2.4,2.5
		c1.5,1.9,2.8,3.9,4.2,5.9c0.4,0.6,0.7,1.3,1.1,1.9C282.3,401,282.3,401.2,281.9,401.1z M287.4,401.9c-0.1,0.1-0.2,0.1-0.3,0
		c-1.2-0.2-2.5-0.4-3.7-0.6c-0.4-0.1-0.5-0.3-0.7-0.6c-0.8-1.4-1.5-2.7-2.4-4c-1-1.4-1.9-2.9-3-4.3c-0.6-0.8-1.3-1.5-2-2.2
		c-0.1-0.1-0.2-0.2-0.4-0.4c0.9,0.2,1.6,0,2.4-0.1c0.1,0,0.2,0,0.3,0.1c1.3,1,2.6,1.9,3.7,3.1c1.7,1.8,3.1,3.7,4.3,5.8
		c0.6,1,1.2,2,1.8,3C287.3,401.7,287.5,401.8,287.4,401.9z M292.3,402.8c-0.8-0.1-1.6-0.3-2.4-0.5c-0.3-0.1-0.6-0.2-1-0.2
		c-0.8,0-1.2-0.5-1.5-1.1c-0.7-1.6-1.6-3.1-2.5-4.6c-1.1-1.7-2.4-3.3-3.8-4.8c-0.7-0.7-1.6-1.4-2.5-2.1c1.2-0.2,2.3-0.2,3.4-0.3
		c0.1,0,0.3,0.1,0.4,0.2c0.7,0.8,1.6,1.3,2.4,1.9c1.2,1,2.2,2.2,3.2,3.5c0.8,1,1.6,1.9,2.2,2.9c0.4,0.8,0.8,1.6,1.3,2.4
		c0.3,0.5,0.6,1.1,0.9,1.6c0.2,0.2,0.2,0.6,0.2,0.9C292.6,402.9,292.5,402.8,292.3,402.8z M322.2,412.1c-1.6-0.7-3.2-1.1-4.9-1.6
		c-0.5-0.2-1.1-0.4-1.6-0.5c-0.9-0.3-1.4-1.1-2.1-1.6c-1.1-0.8-1.8-1.9-2.6-3c-1.3-1.7-2.4-3.6-3.5-5.4c-0.3-0.6-0.8-1.1-1.3-1.7
		c0,0.7,0.2,1.1,0.4,1.5c1,1.5,1.8,3.1,2.8,4.5c0.6,0.8,1.3,1.6,1.8,2.4c0.4,0.6,1,1.2,1.5,1.7c0.3,0.3,0.7,0.4,1,0.8
		c-1-0.3-1.9-0.6-2.7-0.9c-1.8-0.5-3.5-1.3-5.4-1.8c-0.1,0-0.3-0.1-0.4-0.1c-1.1-0.2-1.4-0.5-1.6-1.6c-0.2-1.1-0.8-2.1-1.3-3.1
		c-0.3-0.6-0.7-1.1-1-1.7c0-0.1-0.1-0.2-0.2-0.1c-0.1,0.1-0.1,0.2-0.1,0.3c0.3,0.7,0.5,1.5,0.9,2.2c0.6,1,1,2.1,1.2,3.3
		c-0.5,0-0.9-0.2-1.4-0.3c-1.3-0.4-2.7-0.8-4-1.1c-0.3-0.1-0.4-0.2-0.4-0.4c-0.1-0.8-0.5-1.4-0.8-2.1c-0.3-0.6-0.7-1.2-0.9-1.8
		c-0.1-0.3-0.3-0.6-0.7-0.8c0.6,1.7,1.5,3.1,1.9,4.8c-1.2-0.2-2.4-0.6-3.5-0.9c-0.4-0.1-0.4-0.5-0.5-0.8c-0.8-1.9-1.7-3.6-2.6-5.4
		c-0.7-1.2-1.6-2.2-2.5-3.3c-0.8-1.1-1.8-2-2.8-2.9c-0.4-0.4-0.9-0.7-1.4-1c-0.2-0.1-0.3-0.2-0.4-0.4c0.7-0.2,1.5-0.1,2.2-0.2
		c0.1,0,0.2,0,0.3,0c1.1-0.3,1.9,0.2,2.7,0.9c1.5,1.4,2.8,3,4,4.7c0.4,0.6,0.8,1.2,1.3,1.9c0.1,0.1,0.1,0.3,0.3,0.2
		c0.1-0.1,0.1-0.3,0.1-0.5c-0.2-0.5-0.4-0.9-0.7-1.3c-0.9-1.3-1.8-2.7-2.9-3.9c-0.5-0.6-1-1-1.5-1.5c-0.2-0.2-0.4-0.3-0.5-0.6
		c0.9-0.1,1.8,0,2.6,0c0.9,0,1.6,0.4,2.3,0.9c1.1,0.7,1.9,1.5,2.8,2.4c0.2,0.2,0.3,0.6,0.7,0.7c-0.7-1.7-2.1-2.7-3.5-3.8
		c0.3-0.2,0.6-0.1,0.9-0.1c1.2,0,2.3,0,3.5,0.3c0.7,0.2,1.1,0.7,1.6,1.1c0.4,0.3,0.8,0.7,1.2,1c0.6,0.5,1.1,1,1.6,1.5
		c0,0,0.1,0,0.2,0.1c-0.1-0.7-0.7-1.1-1.1-1.5c-0.5-0.6-1.2-1.2-1.8-1.7c-0.1-0.1-0.2-0.1-0.2-0.2c0-0.1,0.2-0.1,0.3-0.1
		c0.9,0.2,1.8,0.2,2.7,0.4c0.7,0.2,1.3,0.5,1.8,1c1.4,1.3,2.7,2.6,4,4c0.9,1.1,1.8,2.2,2.8,3.3c0.7,0.7,1.2,1.5,1.9,2.3
		c0.5,0.6,1,1.1,1.5,1.7c0.8,1,1.6,1.9,2.4,3c1.2,1.6,2.5,3.2,4.1,4.4c1,0.8,1.8,1.8,2.8,2.5c0.4,0.3,0.8,0.5,1.1,1
		C324,412.6,323.1,412.4,322.2,412.1z M342.7,415.9c-1.5,0.3-3,0.2-4.6,0c-0.1,0-0.2-0.1-0.3-0.1c-3.1-1.4-5.9-3.2-8.5-5.3
		c-0.6-0.5-1.3-0.9-1.9-1.4c-0.1-0.1-0.3-0.1-0.4-0.1c2.6,2.7,5.4,4.9,8.9,6.5c-0.4,0.1-0.7,0.1-1,0c-1.5-0.1-2.8-0.6-4.3-0.8
		c-1.2-0.2-2.3-0.7-3.5-1c-0.6-0.2-1-0.6-1.4-1c-2.2-1.8-4.2-3.8-6.3-5.7c-0.7-0.7-1.3-1.5-1.9-2.3c-0.8-1.1-1.7-2.1-2.6-3.2
		c-0.9-1.1-1.8-2.2-2.8-3.3c-1.5-1.7-2.9-3.5-4.4-5.1c-0.8-0.9-1.8-1.8-2.7-2.7c0.5,0.1,1.1,0.3,1.6,0.4c1.2,0.4,2.5,0.6,3.5,1.4
		c1.6,1.4,3.3,2.6,4.7,4.3c0.4,0.5,1,0.9,1.5,1.3c0.8,0.6,1.5,1.3,2.2,2c0.2,0.2,0.4,0.4,0.6,0.5c-0.5-0.9-1.2-1.6-1.9-2.3
		c-1-0.9-1.9-1.7-2.7-2.7c-0.7-0.8-1.6-1.5-2.4-2.3c-0.1-0.1-0.3-0.2-0.3-0.5c0.6,0.2,1.2,0.4,1.7,0.6c0.9,0.4,1.8,0.8,2.7,1.1
		c0.8,0.3,1.4,0.9,2,1.4c1.8,1.3,3.4,2.9,5.1,4.3c0.2,0.1,0.3,0.2,0.5,0.3c0.1,0.1,0.2,0.2,0.3,0c0.1-0.1-0.1-0.2-0.1-0.3
		c-0.1-0.3-0.5-0.5-0.7-0.7c-1.3-1.1-2.4-2.5-3.8-3.6c0,0,0-0.1,0-0.1c0.6,0.1,1.2,0.4,1.7,0.6c0.9,0.3,1.8,0.7,2.7,0.9
		c0.2,0.1,0.4,0.1,0.5,0.3c0.5,1,1.5,1.6,2.2,2.4c1.4,1.3,2.9,2.4,4.4,3.5c1,0.7,2,1.4,3,2.1c1,0.8,2,1.5,3,2.3
		c0.8,0.6,1.7,1.1,2.5,1.7c0.2,0.2,0.4,0.4,0.4,0.6c0.4,1.3,1.2,2.3,2.1,3.3c0,0,0.1,0.1,0.1,0.2c-2-0.9-3.8-2-5.6-3.2
		c-0.8-0.5-1.5-1.2-2.5-1.5c-0.3-0.1-0.4-0.4-0.7-0.6c0,0.4,4.2,3.7,5,4.2c1.9,1.1,4,1.9,6.1,2.8
		C343.9,415.6,343.3,415.8,342.7,415.9z M346.2,414.3c-1.2,0.3-2.2,0.2-3.1-0.7c-0.8-0.8-1.5-1.7-2.1-2.7c-0.1-0.1-0.1-0.2-0.1-0.5
		c0.8,0.6,1.4,1.1,2.1,1.6c1.1,0.6,2.1,1.2,3.2,1.8c0.1,0.1,0.3,0.1,0.3,0.3C346.5,414.4,346.3,414.3,346.2,414.3z M357,416.9
		c0,0.1-0.2,0.1-0.3,0.1c-1.1-0.1-2.1-0.6-3-1.1c-2.1-1.1-4.2-2.3-6.1-3.6c-0.8-0.5-1.5-1.1-2.1-1.8c-0.7-0.6-1.5-1.1-2.2-1.6
		c-0.8-0.6-1.6-1.3-2.5-1.8c-0.1-0.1-0.2-0.1-0.3,0c0,0,0,0.1,0,0.2c0.6,0.5,0.9,1.2,1.5,1.6c0.7,0.5,1.4,1.1,2.2,1.6
		c0.7,0.5,1.4,1,2,1.7c0.3,0.4,0.8,0.6,1.2,0.9c1.2,0.7,2.2,1.6,3.5,2.1c0.4,0.2,0.9,0.3,1.3,0.8c-1-0.4-1.9-0.7-2.7-1.1
		c-0.8-0.4-1.7-0.7-2.4-1.2c-1.4-0.9-3-1.6-4.4-2.6c-1.4-1.1-2.9-2.1-4.4-3.1c-2.4-1.6-4.7-3.4-7-5.1c-2-1.5-3.9-3-5.6-4.8
		c-0.1-0.1-0.1-0.2-0.3-0.3c0.9,0.2,1.7,0.4,2.5,0.7c0.7,0.3,1.4,0.7,2.2,0.6c0.2,0,0.4,0.1,0.5,0.3c0.4,0.6,2.1,1.7,2.7,1.8
		c-0.4-0.8-1.2-1.1-1.9-1.8c0.9,0.2,1.7,0.4,2.4,0.7c0.1,0,0.2,0.1,0.3,0.1c1.4,0.1,2.3,1.1,3.2,1.9c0.7,0.6,1.4,1.1,2.1,1.8
		c1.2,1.1,2.4,2,3.7,3c1.4,1,2.7,2.1,4.1,3.1c0.6,0.4,1.1,0.9,1.8,1.2c0.2,0.1,0.3,0.3,0.5,0.4c1.2,0.9,2.4,1.9,3.6,2.9
		c1.1,0.9,2.4,1.4,3.6,2.2C356.9,416.8,357.1,416.8,357,416.9z M357.7,416.6c-2.7-1.4-4.9-3.5-7.3-5.3c-0.9-0.7-1.9-1.3-2.8-2
		c-2.1-1.6-4.2-3.2-6.3-4.8c-1.1-0.9-2.1-1.9-3.2-2.7c-0.1-0.1-0.3-0.2-0.4-0.5c1.4,0.3,2.7,0.7,3.9,1.5c1.8,1.4,3.7,2.6,5.5,4
		c0.8,0.6,1.6,1,2.3,1.7c0.8,0.8,1.9,1.3,2.7,2.1c0.5,0.5,1,1,1.5,1.4c1,0.9,2.1,1.7,3.1,2.6c0.7,0.6,1.5,1.2,2.1,1.8
		c0.3,0.3,0.8,0.3,1,0.8C359.1,417.3,358.4,417,357.7,416.6z M373,417c-2.4-0.7-4.5-1.9-6.5-3.3c-1-0.7-2-1.6-3.2-2.2
		c-0.2,0.5,0.2,0.7,0.4,0.9c0.9,0.7,1.7,1.4,2.7,2c1.2,0.8,2.5,1.6,3.9,2.2c0.5,0.2,1,0.5,1.5,0.8c-0.8,0.1-1.6,0.2-2.3-0.2
		c-1.5-0.7-3-1.3-4.4-2.1c-1-0.6-1.9-1.2-3-1.6c1.7,1.8,3.9,2.8,6.1,3.9c-1.1,0-2.2,0.2-3.2-0.1c-0.9-0.3-1.6-0.8-2.4-1.3
		c-1-0.7-1.8-1.6-2.8-2.3c-1.1-0.8-2.1-1.6-3.2-2.3c-0.3-0.2-0.8-0.4-1.2-0.6c0.1,0.4,0.3,0.7,0.6,1c0.6,0.5,1.3,0.9,1.9,1.4
		c0.4,0.3,0.9,0.5,1.3,0.8c0.7,0.5,1.5,1,2.2,1.6c0.8,0.7,1.7,1.2,2.7,1.7c-1.2,0.1-2.4,0.3-3.6-0.4c-1.1-0.7-2-1.5-3-2.4
		c-0.9-0.9-2-1.7-2.9-2.5c-1.8-1.7-3.8-3.3-5.8-4.8c-1.9-1.4-3.7-2.8-5.7-4.2c0.8,0.1,1.5,0.3,2.1,0.5c0.5,0.2,1,0.6,1.5,1
		c0.8,0.6,1.6,1,2.4,1.5c0.3,0.2,0.6,0.5,0.9,0.8c0.2,0.1,0.4,0.3,0.6,0.1c0.2-0.2-0.1-0.4-0.3-0.5c-0.7-0.5-1.4-0.9-1.9-1.5
		c-0.1-0.1-0.3-0.2-0.3-0.4c1.1,0.3,2.2,0.6,3.2,1.1c0.7,0.3,1.4,0.7,2,1.1c0.4,0.2,0.8,0.5,1.1,0.8c0.2,0.2,0.5,0.4,0.8,0.2
		c-0.1-0.5-0.6-0.7-0.9-1c0.3-0.1,0.5,0.1,0.7,0.1c0.7,0.2,1.4,0.4,2.1,0.6c0.6,0.2,1,0.8,1.5,1.1c0.4,0.2,0.7,0.5,1,0.8
		c0.1,0.1,0.2,0.1,0.3,0c0.1-0.1-0.1-0.2-0.1-0.3c-0.3-0.4-0.7-0.7-1.2-0.9c0,0,0-0.1,0.1-0.1c0.7,0.2,1.4,0.4,2,0.6
		c0.5,0.2,1.1,0.4,1.6,0.5c0.5,0.2,1,0.4,1.4,0.9c1.1,1.2,2.5,2.3,3.9,3.2c1.7,1.2,3.4,2.3,5.2,3.2c0.8,0.3,1.5,0.6,2.3,1.1
		C374.4,417.4,373.7,417.3,373,417z M376,416.8c-3.1-1.3-6.1-2.9-8.7-4.9c-0.8-0.6-1.5-1.2-2.3-1.8c-0.1-0.1-0.3-0.2-0.3-0.4
		c0.6,0.2,1.3,0.2,1.8,0.5c1.7,1.2,3.4,2.4,5.2,3.4c1.9,1.1,3.9,2.3,6,3c0.2,0.1,0.4,0.2,0.5,0.3C377.5,417,376.8,417.1,376,416.8z
		 M401.7,407.9c-0.9,0.7-1.7,1.5-2.7,2c-0.6,0.3-1.2,0.1-1.9,0.1C398.7,409.4,400.2,408.6,401.7,407.9z M394.7,410.7
		c1-0.4,1.9-0.1,3-0.1c-0.6,0.5-1.2,0.8-1.9,1.1c-0.3,0.2-0.7,0.1-1,0.1c-0.8-0.1-1.6-0.2-2.4-0.3c-0.1,0-0.2,0-0.3-0.2
		C393,411.1,393.9,411.1,394.7,410.7z M389,411.9c0.7-0.1,1.4,0,2.1,0.2c0.9,0.3,1.9,0.3,2.8,0.4c0.1,0,0.3,0,0.5,0.1
		c-1.2,0.8-2.4,0.8-3.7,0.6c-1.4-0.3-2.8-0.7-4.3-1C387.3,412,388.1,412,389,411.9z M381.3,412c0.9,0.1,1.9,0.1,2.8,0.1
		c0.5,0,0.9,0.3,1.4,0.4c1.4,0.4,2.8,0.6,4.3,0.9c0.4,0.1,0.8,0.1,1.3,0.3c-1.3,0.5-2.4,0.8-3.7,0.4c-1.3-0.4-2.7-0.7-4.1-1.1
		c-1-0.3-2.1-0.7-3.1-1.1C380.6,412,381,412,381.3,412z M375,411.5c1,0,2,0.2,2.9,0.6c1.1,0.4,2.1,0.8,3.2,1.1
		c1.2,0.3,2.4,0.7,3.6,1c0.8,0.2,1.6,0.3,2.4,0.5c0.1,0,0.2,0.1,0.2,0.2c-0.2,0.2-0.5,0.2-0.8,0.3c-1.4,0.5-2.9,0.3-4.3,0
		c-2-0.4-3.7-1.2-5.5-2.1c-1.2-0.5-2.3-1.1-3.5-1.6c-0.1,0-0.2-0.1-0.2-0.3C373.6,411.4,374.3,411.5,375,411.5z M374.6,412.9
		c1.4,0.6,2.7,1.4,4.1,1.9c1.3,0.5,2.6,0.9,4,1.2c-0.9,0.2-1.8,0.4-2.7,0.5c-0.6,0.1-1.1-0.3-1.6-0.4c-1.5-0.6-3-1.2-4.4-2
		c-1.7-1-3.4-2-5.1-3.2c-0.2-0.1-0.3-0.2-0.5-0.4c0.7,0.1,1.3,0.2,1.9,0.4C371.8,411.6,373.2,412.2,374.6,412.9z M363.3,403.5
		c0.1-0.2,0.2-0.1,0.3,0c1.6,0.8,3.2,1.6,4.9,2.3c1,0.4,2,0.7,3,1.1c0.2,0.1,0.4,0.1,0.5,0.3c-0.9,0.7-2.1,1-3.2,1.1
		c-1,0.1-1.9,0.2-2.9,0c-0.9-0.2-1.8-0.5-2.7-0.9c-1.3-0.5-2.6-1-3.8-1.5c-0.1-0.1-0.3-0.1-0.5-0.2c1.3-0.5,2.4-0.9,3.5-1.5
		C362.8,403.9,363.2,403.9,363.3,403.5z M353.2,398c0-0.2,0.2,0,0.3,0c1.2,0.8,2.5,1.6,3.8,2.3c1.2,0.7,2.4,1.2,3.5,1.8
		c0.2,0.1,0.4,0.1,0.4,0.3c0,0.2-0.3,0.1-0.4,0.2c-0.9,0.5-1.9,0.8-2.9,1.1c-1.3,0.4-2.5,0.2-3.8,0.1c-1.2-0.2-2.3-0.7-3.5-1.1
		c-1.4-0.5-2.7-0.8-4.2-1.3c1.5-0.7,2.8-1.6,4.3-2.2c0.6-0.3,1.3-0.6,1.9-0.9C352.9,398.4,353.2,398.4,353.2,398z M340,392.7
		c0.3-0.2,0.7-0.2,1-0.4c0.4-0.2,0.9-0.4,1.3-0.6c0.3-0.2,0.6-0.1,0.8,0c2,1.1,3.9,2.3,5.9,3.4c0.6,0.4,1.3,0.8,1.9,1.1
		c0.5,0.3,0.5,0.4,0,0.7c-0.5,0.3-1,0.6-1.6,0.8c-1.6,0.7-3.1,1.5-4.8,2c-0.6,0.2-1.1,0.3-1.7,0.3c-1.1,0-2.1-0.5-3.1-0.7
		c-2-0.5-3.9-1-5.8-1.6c-0.6-0.2-1.2-0.5-1.9-0.7c-0.3-0.1-0.3-0.2,0-0.4c1.1-0.6,2.3-1.1,3.4-1.7
		C336.9,394.2,338.5,393.6,340,392.7z M324.4,384.5c0.7-0.3,1.3-0.4,2-0.1c1.6,0.6,3.2,1.2,4.8,1.8c2.3,1,4.5,1.8,6.8,2.9
		c0.4,0.2,0.5,1,0.3,1.5c-0.4,0.8-1.1,1.3-1.9,1.8c-2,1.3-4.2,2.1-6.5,2.7c-0.1,0-0.2,0.1-0.3,0.1c-0.1,0-0.1,0-0.2,0
		c-2,0.1-4-0.4-5.9-1c-1-0.3-2.1-0.6-3.1-0.9c-1.9-0.5-3.8-1.4-5.3-2.8c-0.2-0.2-0.2-0.3,0-0.5c1.1-0.8,2.3-1.5,3.5-2.2
		C320.4,386.7,322.3,385.5,324.4,384.5z M302.1,380.7c0.5-0.8,1.4-1.2,2-1.8c0.5-0.5,1.2-0.9,2.1-0.6c0.7,0.2,1.5,0.1,2.1,0.4
		c0.9,0.3,1.7,0.4,2.6,0.7c1.6,0.5,3.3,1,5,1.5c1.6,0.5,3.1,0.9,4.6,1.6c1,0.4,1.1,1.1,0.2,1.9c-1.2,1.1-2.6,1.8-3.9,2.6
		c-1.5,0.9-3.3,1.5-4.9,2.2c-0.3,0.1-0.6,0.1-0.9,0.1c-1,0-2-0.3-3-0.6c-2.1-0.6-4.2-1.3-6.4-1.8c-1.5-0.4-3.1-0.6-4.7-0.7
		c-0.1,0-0.3,0.1-0.4-0.1c-0.1-0.1,0.1-0.2,0.2-0.4c0.4-0.7,1.1-1.1,1.7-1.6c0.4-0.4,0.8-0.8,1.2-1.2c0.6-0.5,1.2-1.1,1.9-1.6
		C301.7,381.1,302,380.9,302.1,380.7z M278.8,383.3c0.9-1.3,1.8-2.5,2.8-3.6c0.6-0.6,1.1-1.4,1.5-2.1c0.1-0.2,0.3-0.3,0.5-0.3
		c2-0.2,4-0.3,6.1-0.4c1.9-0.1,3.7,0,5.6,0c0.9,0,1.8,0.1,2.7,0.2c0.8,0.1,1.6,0.2,2.4,0.4c0.2,0.1,0.3,0.2,0.3,0.3
		c0.1,0.5,0.1,1-0.2,1.4c-1.1,1.2-2.1,2.4-3.4,3.5c-0.7,0.6-1.4,1.4-2.2,2c-1,0.7-2.1,1.1-3.3,1.4c-0.5,0.1-1.1,0.4-1.7,0.3
		c-0.8,0.1-1.7,0.2-2.6,0.2c-0.7,0-1.4,0-2.1,0c-2.2,0-4.4,0-6.5,0c-0.5,0-1,0.2-1.5,0.3c-0.1,0-0.3,0.1-0.4-0.1
		c-0.1-0.1,0.1-0.2,0.1-0.3C277.4,385.3,278.1,384.3,278.8,383.3z M258.6,389.3c0.3-2.2,1.3-4.3,2-6.4c0.1-0.4,0.4-0.6,0.4-1
		c0-0.1,0.2-0.2,0.3-0.2c2.1-0.7,4.3-1.2,6.5-1.7c1.7-0.3,3.3-0.7,4.9-1.1c1.5-0.4,3-0.6,4.6-0.8c1-0.1,1.3,0.4,1,1.4
		c-0.5,1.2-1.3,2.3-2,3.4c-0.8,1.1-1.6,2.2-2.5,3.3c-0.6,0.7-1.4,1.1-2.2,1.3c-3,0.7-6.1,1.2-9.2,1.8c-1,0.2-2,0.3-2.9,0.7
		c-0.1,0.1-0.3,0.1-0.4,0.1C258.6,389.9,258.5,389.9,258.6,389.3z M260.4,392.5c0.2-0.1,0.3,0,0.5,0c1,0.5,1.9,1.2,2.7,2.1
		c1.4,1.6,2.5,3.3,3.6,5c0.1,0.1,0.2,0.2,0.2,0.4c-0.1,0.1-0.3,0.1-0.4,0.1c-0.9-0.1-1.7,0-2.6,0c-0.2,0-0.2,0-0.3-0.2
		c-1.4-2.2-3.2-3.9-5.2-5.5c-0.5-0.4-1.1-0.6-1.8-1C258.1,393,259.3,392.9,260.4,392.5z M244.1,393.1c0.3-0.8,0.6-1.6,1-2.4
		c0.5-1.1,1-2.2,1.4-3.4c0.1-0.3,0.4-0.4,0.7-0.5c1.7-0.6,3.3-1.3,4.9-1.9c1.3-0.5,2.6-1,3.9-1.4c0.7-0.2,0.9-0.1,0.9,0.8
		c0,0.3-0.2,0.7-0.4,1.1c-0.3,0.7-0.6,1.4-0.9,2.1c-0.4,1.1-1.2,1.9-2.3,2.4c-1.5,0.7-3.1,1.4-4.7,1.9c-1.4,0.4-2.7,0.9-4,1.4
		c-0.1,0-0.3,0.1-0.4,0.1C244.1,393.5,244,393.4,244.1,393.1z M247.3,396.2c0.2-0.1,0.3,0,0.5,0.1c1.5,0.8,3.1,1.5,4.5,2.5
		c0.7,0.6,1.5,1.1,2.3,1.6c0.1,0.1,0.3,0.2,0.3,0.4c0,0.2-0.3,0.1-0.4,0.1c-0.8,0.1-1.7,0.2-2.5,0.4c-0.3,0-0.5,0-0.8-0.1
		c-2.4-1.3-5-2.4-7.6-3.3c-0.1-0.1-0.3-0.1-0.5-0.2C244.6,397.1,246,396.7,247.3,396.2z M234.5,397.2c0.1-1.2,0.6-2.3,1.2-3.4
		c0.2-0.4,0.2-1,0.7-1.2c0.9-0.5,1.7-1,2.5-1.5c0.8-0.6,1.8-0.9,2.6-1.6c0.2-0.1,0.5-0.2,0.7-0.3c0.3-0.1,0.8-0.4,0.6,0.2
		c-0.1,1.3-0.3,2.3-0.8,3.2c-0.3,0.6-0.6,1.2-1,1.7c-0.9,1.2-2,1.9-3.4,2.4c-0.8,0.3-1.7,0.5-2.5,0.9
		C234.5,397.9,234.5,397.8,234.5,397.2z M236.6,400c0.8-0.3,1.5,0,2.2,0.2c1.9,0.4,3.7,1,5.5,1.7c0,0,0.1,0.1,0.2,0.2
		c-3.5,0-6.8-1-10.2-1C235,400.6,235.8,400.3,236.6,400z M225.6,403.5c-4.1,2.4-8.6,4.1-12.9,6c0-0.1-0.1-0.1-0.1-0.2
		C216.9,407.3,221.2,405.4,225.6,403.5z"/>
	<path fill-rule="evenodd" clip-rule="evenodd" d="M298.5,395c0.5,1,0.9,1.8,1.8,2.4C300.3,396.7,299.6,395.7,298.5,395z"/>
	<path fill-rule="evenodd" clip-rule="evenodd" d="M303.4,393.8c0,0-0.1,0-0.2,0c-0.1,0-0.1,0.1-0.1,0.2c0,0.2,0.8,1.2,1,1.2
		c0.1,0,0.1,0,0.2,0c0.1-0.1,0.1-0.2,0-0.2C304.1,394.5,303.8,394.2,303.4,393.8z"/>
	<path fill-rule="evenodd" clip-rule="evenodd" d="M322.7,403.8c-0.5-0.3-0.8-0.9-1.6-1.1c0.9,1,1.6,2,2.8,2.5
		C323.3,404.9,323.3,404.1,322.7,403.8z"/>
	<path fill-rule="evenodd" clip-rule="evenodd" d="M325.7,401.4c-0.1-0.1-0.1-0.2-0.3-0.1c-0.1,0.1-0.1,0.2,0,0.2
		c0.6,0.5,1,1.2,1.7,1.7c0.2,0.2,0.4,0.4,0.8,0.3c-0.3-0.2-0.5-0.4-0.7-0.6C326.7,402.4,326.2,401.9,325.7,401.4z"/>
	<path fill-rule="evenodd" clip-rule="evenodd" d="M331.8,406.9c-0.5-0.5-1-1-1.8-1.2C330.7,406.5,331.2,407.1,331.8,406.9z"/>
	<path fill-rule="evenodd" clip-rule="evenodd" d="M320.3,401.8c-0.3-0.5-0.6-1-1.1-1.4C319.4,401,319.8,401.4,320.3,401.8z"/>
	<path fill-rule="evenodd" clip-rule="evenodd" d="M320.3,401.8C320.3,401.8,320.3,401.8,320.3,401.8
		C320.3,401.8,320.3,401.8,320.3,401.8L320.3,401.8z"/>
	<path fill-rule="evenodd" clip-rule="evenodd" d="M320.3,401.8L320.3,401.8C320.3,401.8,320.3,401.8,320.3,401.8
		C320.3,401.8,320.3,401.8,320.3,401.8z"/>
	<path fill-rule="evenodd" clip-rule="evenodd" d="M321,402.7c-0.1-0.5-0.4-0.7-0.7-0.8C320.4,402.2,320.7,402.3,321,402.7z"/>
	<path fill-rule="evenodd" clip-rule="evenodd" d="M357.4,408.9c-0.5-0.4-1-0.7-1.5-1c-0.1,0-0.2-0.1-0.3,0c0.5,0.5,1,1,1.6,1.3
		c0.1,0.1,0.3,0.2,0.4,0C357.7,409.1,357.5,409,357.4,408.9z"/>
	<path fill-rule="evenodd" clip-rule="evenodd" d="M361.9,410.4c-0.3-0.2-0.6-0.4-0.9-0.7c-0.1-0.1-0.1-0.1-0.2-0.1
		c-0.1,0.1-0.1,0.1-0.1,0.1c0,0.1,0,0.2,0,0.2c0.3,0.3,0.6,0.6,1,0.8c0.1,0.1,0.4,0.2,0.5,0.1C362.3,410.6,362.1,410.5,361.9,410.4z
		"/>
	<path fill-rule="evenodd" clip-rule="evenodd" d="M360.6,411.7c-0.4-0.3-0.9-0.5-1.3-0.8c0.2,0.6,0.6,0.9,1,1.2
		c0.2,0.1,0.3,0.1,0.5-0.1C360.8,411.9,360.8,411.8,360.6,411.7z"/>
	<path fill-rule="evenodd" clip-rule="evenodd" d="M352.3,408c-0.1-0.1-0.3,0-0.3,0.2c0.2,0.3,0.5,0.6,0.9,0.7c0.1,0,0.2,0.1,0.3,0
		c0.1-0.1,0.1-0.2-0.1-0.3C352.8,408.4,352.5,408.2,352.3,408z"/>
	<path fill-rule="evenodd" clip-rule="evenodd" d="M335.2,402.5c-0.1-0.1-0.3-0.3-0.4-0.1c-0.2,0.2,0.1,0.2,0.2,0.4
		c0.2,0.3,0.4,0.6,0.8,0.7c0.1,0,0.2,0,0.3-0.1c0.1-0.1,0-0.2-0.1-0.3C335.7,402.9,335.5,402.7,335.2,402.5z"/>
	<path fill-rule="evenodd" clip-rule="evenodd" d="M337.5,404.4c-0.1-0.1-0.2,0-0.2,0c-0.1,0-0.1,0.1-0.1,0.2c0.1,0.3,0.7,0.8,1,0.8
		c0.1,0,0.1,0,0.1-0.1c0-0.1,0-0.2-0.1-0.3C338.1,404.7,337.7,404.6,337.5,404.4z"/>
</g>
</svg>
