<?xml version="1.0" encoding="utf-8"?>
<!-- Generator: Adobe Illustrator 18.0.0, SVG Export Plug-In . SVG Version: 6.00 Build 0)  -->
<!DOCTYPE svg PUBLIC "-//W3C//DTD SVG 1.1//EN" "http://www.w3.org/Graphics/SVG/1.1/DTD/svg11.dtd">
<svg version="1.1" id="Layer_1" xmlns="http://www.w3.org/2000/svg" xmlns:xlink="http://www.w3.org/1999/xlink" x="0px" y="0px"
	 viewBox="0 0 222.4 175.3" style="enable-background:new 0 0 222.4 175.3;" xml:space="preserve">
<style type="text/css">
	.st0{fill:#B74040;}
</style>
<path class="st0" d="M25,70C10.1,18.7,49.3,20.1,49.3,20.1c29.2,1.5,50,40,50,40h2.4c38.6-73.9,76.3-39.6,84.3-24.5
	c19.7,37.3-31,34.3-45.4,55.2c-8.1-12.5,10.5-68.3,9.8-68.6c-0.6-0.3-8.7,5.9-9.2,6.4c-40,39.7-36.2,60.3-32.7,67.3l-5.5-1.3
	c-3.8-4.6-8-7.5-12.5-8.8c-9.4-2.6-17,3-18.9,4.5l-9.1,1.2c-0.7,0.1-1.3,0.6-1.4,1.1c-0.1,0.6,0.3,1.1,0.9,1.3
	c16.7,4.9,20,17,20,17.1c4.8,17,18,28.8,38.2,34.3c6.6,1.8,17.5,3.8,31.7,3.3c0.3,0,0.6,0,0.7,0c1.4,0.1,7.4,0.4,9.1,0.5
	c9.8,6,19.1,9.3,25.2,10.9c5.8,1.6,9.5,1.9,9.6,2c0.7,0.1,1.4-0.3,1.7-0.8l3.4-7.1l11.8-7.4c0.5-0.3,0.7-0.8,0.6-1.3
	c-0.1-0.5-0.6-0.8-1.2-0.9c-9.3-1.3-17.5-2.9-24.3-4.7c-17.2-4.7-22.8-10.2-24.5-14c-1.5-3.4-0.2-6,0.2-6.7
	C247.4,24,167.6-2,147.4,0.1c-13.7,0.5-22.7,5.5-46.5,30.5C99.2,30.3,95.2,18.4,73.7,7C15.1-18.1-2.4,31.7,0.2,53
	c3.4,39.7,25,64.7,39.4,77.5c13.2,11.7,87.3,66.9,182.8,34.8C62.7,190.6,25,70,25,70z"/>
</svg>
